<?xml version="1.0" encoding="UTF-8" standalone="no"?>
<!DOCTYPE svg PUBLIC "-//W3C//DTD SVG 1.1//EN" "http://www.w3.org/Graphics/SVG/1.1/DTD/svg11.dtd">
<!-- Created with Vectornator (http://vectornator.io/) -->
<svg height="100%" stroke-miterlimit="10" style="fill-rule:nonzero;clip-rule:evenodd;stroke-linecap:round;stroke-linejoin:round;" version="1.1" viewBox="0 0 100 100" width="100%" xml:space="preserve" xmlns="http://www.w3.org/2000/svg" xmlns:vectornator="http://vectornator.io" xmlns:xlink="http://www.w3.org/1999/xlink">
<defs/>
<clipPath id="ArtboardFrame">
<rect height="100" width="100" x="0" y="0"/>
</clipPath>
<g clip-path="url(#ArtboardFrame)" id="Layer-1" vectornator:layerName="Layer 1">
<path d="M41.3481-139.311L-29.4926-54.2663L-21.7859-47.8781L49.0237-132.92L41.3481-139.311ZM57.7659-126.187L-13.0437-41.1452L-5.36817-34.7543L65.4725-119.799L57.7659-126.187ZM81.7624-122.165L-4.17627-18.9534L3.53036-12.5653L89.4406-115.743L81.7624-122.165ZM103.556-115.463L6.928 0.586681L14.6035 6.97714L111.231-109.072L103.556-115.463ZM107.079-86.8525L36.2408-1.77686L43.9474 4.61176L114.757-80.4304L107.079-86.8525ZM123.496-73.7287L52.6897 11.3446L60.3652 17.7351L131.203-67.3406L123.496-73.7287Z" fill="#000000" fill-rule="nonzero" opacity="1" stroke="none"/>
<path d="M42.3786-41.9484L-28.462 43.0963L-20.7553 49.4846L50.0543-35.5574L42.3786-41.9484ZM58.7965-28.8245L-12.0131 56.2174L-4.33759 62.6083L66.5031-22.4364L58.7965-28.8245ZM82.793-24.8027L-3.14569 78.4092L4.56094 84.7973L90.4712-18.3806L82.793-24.8027ZM104.587-18.1006L7.95858 97.9493L15.634 104.34L112.262-11.7096L104.587-18.1006ZM108.109 10.5101L37.2714 95.5858L44.978 101.974L115.787 16.9323L108.109 10.5101ZM124.527 23.6339L53.7203 108.707L61.3958 115.098L132.234 30.022L124.527 23.6339Z" fill="#000000" fill-rule="nonzero" opacity="1" stroke="none"/>
<path d="M37.6877 29.444L-33.1529 114.489L-25.4462 120.877L45.3633 35.835L37.6877 29.444ZM54.1056 42.5679L-16.704 127.61L-9.0285 134.001L61.8121 48.956L54.1056 42.5679ZM78.1021 46.5897L-7.8366 149.802L-0.129971 156.19L85.7803 53.0118L78.1021 46.5897ZM99.8961 53.2918L3.26767 169.342L10.9431 175.732L107.571 59.6828L99.8961 53.2918ZM103.419 81.9025L32.5804 166.978L40.2871 173.367L111.096 88.3247L103.419 81.9025ZM119.836 95.0263L49.0294 180.1L56.7049 186.49L127.543 101.414L119.836 95.0263Z" fill="#000000" fill-rule="nonzero" opacity="1" stroke="none"/>
<path d="M52.1991 110.587L-18.6415 195.632L-10.9348 202.02L59.8747 116.978L52.1991 110.587ZM68.617 123.711L-2.19261 208.753L5.48289 215.144L76.3235 130.099L68.617 123.711ZM92.6134 127.733L6.67479 230.944L14.3814 237.333L100.292 134.155L92.6134 127.733ZM114.407 134.435L17.7791 250.485L25.4545 256.875L122.082 140.826L114.407 134.435ZM117.93 163.045L47.0918 248.121L54.7985 254.51L125.608 169.467L117.93 163.045ZM134.347 176.169L63.5408 261.242L71.2162 267.633L142.054 182.557L134.347 176.169Z" fill="#000000" fill-rule="nonzero" opacity="1" stroke="none"/>
</g>
</svg>
