<?xml version="1.0" encoding="UTF-8" standalone="no"?>
<!DOCTYPE svg PUBLIC "-//W3C//DTD SVG 1.1//EN" "http://www.w3.org/Graphics/SVG/1.1/DTD/svg11.dtd">
<!-- Created with Vectornator (http://vectornator.io/) -->
<svg height="100%" stroke-miterlimit="10" style="fill-rule:nonzero;clip-rule:evenodd;stroke-linecap:round;stroke-linejoin:round;" version="1.1" viewBox="0 0 100 100" width="100%" xml:space="preserve" xmlns="http://www.w3.org/2000/svg" xmlns:vectornator="http://vectornator.io" xmlns:xlink="http://www.w3.org/1999/xlink">
<defs/>
<g id="Layer-1" vectornator:layerName="Layer 1">
<path d="M2.5 10C2.5 5.85786 5.85786 2.5 10 2.5C14.1421 2.5 17.5 5.85786 17.5 10C17.5 14.1421 14.1421 17.5 10 17.5C5.85786 17.5 2.5 14.1421 2.5 10Z" fill="#000000" fill-rule="nonzero" opacity="1" stroke="none"/>
<path d="M22.5 30C22.5 25.8579 25.8579 22.5 30 22.5C34.1421 22.5 37.5 25.8579 37.5 30C37.5 34.1421 34.1421 37.5 30 37.5C25.8579 37.5 22.5 34.1421 22.5 30Z" fill="#000000" fill-rule="nonzero" opacity="1" stroke="none"/>
<path d="M42.5 50C42.5 45.8579 45.8579 42.5 50 42.5C54.1421 42.5 57.5 45.8579 57.5 50C57.5 54.1421 54.1421 57.5 50 57.5C45.8579 57.5 42.5 54.1421 42.5 50Z" fill="#000000" fill-rule="nonzero" opacity="1" stroke="none"/>
<path d="M62.5 70C62.5 65.8579 65.8579 62.5 70 62.5C74.1421 62.5 77.5 65.8579 77.5 70C77.5 74.1421 74.1421 77.5 70 77.5C65.8579 77.5 62.5 74.1421 62.5 70Z" fill="#000000" fill-rule="nonzero" opacity="1" stroke="none"/>
<path d="M82.5 90C82.5 85.8579 85.8579 82.5 90 82.5C94.1421 82.5 97.5 85.8579 97.5 90C97.5 94.1421 94.1421 97.5 90 97.5C85.8579 97.5 82.5 94.1421 82.5 90Z" fill="#000000" fill-rule="nonzero" opacity="1" stroke="none"/>
<path d="M22.5 10C22.5 5.85786 25.8579 2.5 30 2.5C34.1421 2.5 37.5 5.85786 37.5 10C37.5 14.1421 34.1421 17.5 30 17.5C25.8579 17.5 22.5 14.1421 22.5 10Z" fill="#000000" fill-rule="nonzero" opacity="1" stroke="none"/>
<path d="M42.5 30C42.5 25.8579 45.8579 22.5 50 22.5C54.1421 22.5 57.5 25.8579 57.5 30C57.5 34.1421 54.1421 37.5 50 37.5C45.8579 37.5 42.5 34.1421 42.5 30Z" fill="#000000" fill-rule="nonzero" opacity="1" stroke="none"/>
<path d="M62.5 50C62.5 45.8579 65.8579 42.5 70 42.5C74.1421 42.5 77.5 45.8579 77.5 50C77.5 54.1421 74.1421 57.5 70 57.5C65.8579 57.5 62.5 54.1421 62.5 50Z" fill="#000000" fill-rule="nonzero" opacity="1" stroke="none"/>
<path d="M82.5 70C82.5 65.8579 85.8579 62.5 90 62.5C94.1421 62.5 97.5 65.8579 97.5 70C97.5 74.1421 94.1421 77.5 90 77.5C85.8579 77.5 82.5 74.1421 82.5 70Z" fill="#000000" fill-rule="nonzero" opacity="1" stroke="none"/>
<path d="M2.5 30C2.5 25.8579 5.85786 22.5 10 22.5C14.1421 22.5 17.5 25.8579 17.5 30C17.5 34.1421 14.1421 37.5 10 37.5C5.85786 37.5 2.5 34.1421 2.5 30Z" fill="#000000" fill-rule="nonzero" opacity="1" stroke="none"/>
<path d="M22.5 50C22.5 45.8579 25.8579 42.5 30 42.5C34.1421 42.5 37.5 45.8579 37.5 50C37.5 54.1421 34.1421 57.5 30 57.5C25.8579 57.5 22.5 54.1421 22.5 50Z" fill="#000000" fill-rule="nonzero" opacity="1" stroke="none"/>
<path d="M42.5 70C42.5 65.8579 45.8579 62.5 50 62.5C54.1421 62.5 57.5 65.8579 57.5 70C57.5 74.1421 54.1421 77.5 50 77.5C45.8579 77.5 42.5 74.1421 42.5 70Z" fill="#000000" fill-rule="nonzero" opacity="1" stroke="none"/>
<path d="M62.3546 90C62.3546 85.8579 65.7125 82.5 69.8546 82.5C73.9967 82.5 77.3546 85.8579 77.3546 90C77.3546 94.1421 73.9967 97.5 69.8546 97.5C65.7125 97.5 62.3546 94.1421 62.3546 90Z" fill="#000000" fill-rule="nonzero" opacity="1" stroke="none"/>
<path d="M2.5 50C2.5 45.8579 5.85786 42.5 10 42.5C14.1421 42.5 17.5 45.8579 17.5 50C17.5 54.1421 14.1421 57.5 10 57.5C5.85786 57.5 2.5 54.1421 2.5 50Z" fill="#000000" fill-rule="nonzero" opacity="1" stroke="none"/>
<path d="M22.5 70C22.5 65.8579 25.8579 62.5 30 62.5C34.1421 62.5 37.5 65.8579 37.5 70C37.5 74.1421 34.1421 77.5 30 77.5C25.8579 77.5 22.5 74.1421 22.5 70Z" fill="#000000" fill-rule="nonzero" opacity="1" stroke="none"/>
<path d="M42.5 90C42.5 85.8579 45.8579 82.5 50 82.5C54.1421 82.5 57.5 85.8579 57.5 90C57.5 94.1421 54.1421 97.5 50 97.5C45.8579 97.5 42.5 94.1421 42.5 90Z" fill="#000000" fill-rule="nonzero" opacity="1" stroke="none"/>
<path d="M42.5 10C42.5 5.85786 45.8579 2.5 50 2.5C54.1421 2.5 57.5 5.85786 57.5 10C57.5 14.1421 54.1421 17.5 50 17.5C45.8579 17.5 42.5 14.1421 42.5 10Z" fill="#000000" fill-rule="nonzero" opacity="1" stroke="none"/>
<path d="M62.5 30C62.5 25.8579 65.8579 22.5 70 22.5C74.1421 22.5 77.5 25.8579 77.5 30C77.5 34.1421 74.1421 37.5 70 37.5C65.8579 37.5 62.5 34.1421 62.5 30Z" fill="#000000" fill-rule="nonzero" opacity="1" stroke="none"/>
<path d="M82.5 50C82.5 45.8579 85.8579 42.5 90 42.5C94.1421 42.5 97.5 45.8579 97.5 50C97.5 54.1421 94.1421 57.5 90 57.5C85.8579 57.5 82.5 54.1421 82.5 50Z" fill="#000000" fill-rule="nonzero" opacity="1" stroke="none"/>
<path d="M62.5 10C62.5 5.85786 65.8579 2.5 70 2.5C74.1421 2.5 77.5 5.85786 77.5 10C77.5 14.1421 74.1421 17.5 70 17.5C65.8579 17.5 62.5 14.1421 62.5 10Z" fill="#000000" fill-rule="nonzero" opacity="1" stroke="none"/>
<path d="M82.5 30C82.5 25.8579 85.8579 22.5 90 22.5C94.1421 22.5 97.5 25.8579 97.5 30C97.5 34.1421 94.1421 37.5 90 37.5C85.8579 37.5 82.5 34.1421 82.5 30Z" fill="#000000" fill-rule="nonzero" opacity="1" stroke="none"/>
<path d="M2.5 70C2.5 65.8579 5.85786 62.5 10 62.5C14.1421 62.5 17.5 65.8579 17.5 70C17.5 74.1421 14.1421 77.5 10 77.5C5.85786 77.5 2.5 74.1421 2.5 70Z" fill="#000000" fill-rule="nonzero" opacity="1" stroke="none"/>
<path d="M22.5 90C22.5 85.8579 25.8579 82.5 30 82.5C34.1421 82.5 37.5 85.8579 37.5 90C37.5 94.1421 34.1421 97.5 30 97.5C25.8579 97.5 22.5 94.1421 22.5 90Z" fill="#000000" fill-rule="nonzero" opacity="1" stroke="none"/>
<path d="M82.5 10C82.5 5.85786 85.8579 2.5 90 2.5C94.1421 2.5 97.5 5.85786 97.5 10C97.5 14.1421 94.1421 17.5 90 17.5C85.8579 17.5 82.5 14.1421 82.5 10Z" fill="#000000" fill-rule="nonzero" opacity="1" stroke="none"/>
<path d="M2.5 90C2.5 85.8579 5.85786 82.5 10 82.5C14.1421 82.5 17.5 85.8579 17.5 90C17.5 94.1421 14.1421 97.5 10 97.5C5.85786 97.5 2.5 94.1421 2.5 90Z" fill="#000000" fill-rule="nonzero" opacity="1" stroke="none"/>
</g>
</svg>
